<?xml version="1.0" standalone="no"?><svg xmlns="http://www.w3.org/2000/svg" viewBox="0 0 1440 320"><path fill="#000b76" fill-opacity="0.59" d="M0,96L34.3,85.3C68.6,75,137,53,206,69.3C274.3,85,343,139,411,133.3C480,128,549,64,617,37.3C685.7,11,754,21,823,53.3C891.4,85,960,139,1029,160C1097.1,181,1166,171,1234,149.3C1302.9,128,1371,96,1406,80L1440,64L1440,320L1405.7,320C1371.4,320,1303,320,1234,320C1165.7,320,1097,320,1029,320C960,320,891,320,823,320C754.3,320,686,320,617,320C548.6,320,480,320,411,320C342.9,320,274,320,206,320C137.1,320,69,320,34,320L0,320Z"></path></svg>